<?xml version="1.0" encoding="UTF-8"?>
<svg width="1200pt" height="1200pt" version="1.1" viewBox="0 0 1200 1200" xmlns="http://www.w3.org/2000/svg">
 <path d="m536.39 339.94h-336.19c-10.359 0-18.75 8.3906-18.75 18.75v487.5c0 10.359 8.3906 18.75 18.75 18.75h336.19c10.359 0 18.75-8.3906 18.75-18.75v-487.5c0-10.359-8.3906-18.75-18.75-18.75zm-18.75 487.5h-298.69v-450h298.69z"/>
 <path d="m1058.3 411.05h-20.156c-11.156 0-21.562 2.9531-30.891 7.7344v-70.266c0-13.266-5.1562-25.734-14.531-35.109s-21.844-14.531-35.062-14.531c-4.5469 0-8.8125 0.79688-12.984 1.9688-1.7812-9.8438-6.4219-18.891-13.641-26.109-9.375-9.375-21.844-14.531-35.062-14.531h-0.046876c-13.219 0-25.688 5.1562-35.062 14.484-7.2188 7.2188-11.859 16.266-13.688 26.062-4.1719-1.125-8.4844-1.9688-12.984-1.9688-22.219 0-40.875 14.812-47.156 35.016-4.6406-1.4531-9.4688-2.4375-14.531-2.4375h-0.046876c-13.219 0-25.688 5.1562-35.062 14.531s-14.531 21.844-14.531 35.062l-0.046874 229.97c0 22.922 4.4531 45.328 13.219 66.562l1.9219 4.6875h-124.26l-0.046875-328.13c0-38.812-31.547-70.359-70.359-70.359h-349.87c-38.812 0-70.359 31.547-70.359 70.359v496.78c0 38.812 31.547 70.359 70.359 70.359h349.87c27.516 0 51.094-16.031 62.672-39.047h147.56v39c0 10.359 8.3906 18.75 18.75 18.75s18.75-8.3906 18.75-18.75v-39h30.562v20.297c0 10.359 8.3906 18.75 18.75 18.75h78.891c10.359 0 18.75-8.3906 18.75-18.75v-78.141c0-10.359-8.3906-18.75-18.75-18.75h-78.891c-10.359 0-18.75 8.3906-18.75 18.75v20.344h-30.562l0.046875-97.641c0-9.2344-0.9375-18.375-2.3438-27.375h32.906v20.297c0 10.359 8.3906 18.75 18.75 18.75h78.891c10.359 0 18.75-8.3906 18.75-18.75v-78.094c0-10.359-8.3906-18.75-18.75-18.75h-78.938c-10.359 0-18.75 8.3906-18.75 18.75v20.297h-43.172c-0.23438-0.5625-0.375-1.125-0.60938-1.6875l-7.2188-17.344c-6.8906-16.641-10.406-34.219-10.359-52.219l0.046875-229.92c0-3.2344 1.2656-6.2812 3.5625-8.5781 2.2969-2.25 5.2969-3.5156 8.5781-3.5156 6.6562 0 12.094 5.4375 12.094 12.094v82.547c0 10.359 8.3906 18.75 18.75 18.75s18.75-8.3906 18.75-18.75l0.046875-82.5v-32.578c0-6.7031 5.4375-12.141 12.094-12.141 6.7031 0 12.141 5.4375 12.141 12.141l-0.046875 115.08c0 10.359 8.3906 18.75 18.75 18.75s18.75-8.3906 18.75-18.75l0.046875-115.03v-38.625c0-3.2344 1.2656-6.2812 3.5625-8.5781 2.2969-2.25 5.2969-3.5156 8.5781-3.5156 3.2344 0 6.2812 1.2656 8.5781 3.5625 2.2969 2.2969 3.5625 5.3438 3.5625 8.5781l-0.046875 153.71v0.046875c0 10.359 8.3906 18.75 18.75 18.75s18.75-8.3906 18.75-18.75l0.046875-115.03c0-6.7031 5.4375-12.141 12.141-12.141 3.2344 0 6.2812 1.2656 8.5781 3.5625s3.5625 5.3438 3.5625 8.5781l-0.046875 131.02v6.7031l-0.09375 34.266c0 10.359 8.3906 18.75 18.75 18.75s18.75-8.3906 18.75-18.75v-41.203c0-17.062 13.875-30.891 30.938-30.891h1.4062v105.42c0 19.641-8.25 38.578-22.688 51.938l-8.8125 8.1562c-24.328 22.547-38.297 54.469-38.297 87.656v210.1c0 10.359 8.3906 18.75 18.75 18.75s18.75-8.3906 18.75-18.75v-210.05c0-22.781 9.5625-44.719 26.297-60.188l8.8125-8.1562c22.078-20.438 34.734-49.406 34.734-79.453l-0.046875-124.13c0-10.359-8.3906-18.75-18.75-18.75zm-199.22 432h41.391v40.641h-41.391zm0-162.47h41.391v40.594h-41.391zm-315.79 203.11h-349.87c-18.141 0-32.859-14.719-32.859-32.859v-496.78c0-18.141 14.766-32.859 32.859-32.859h349.87c18.141 0 32.859 14.719 32.859 32.859v496.78c0 18.141-14.719 32.859-32.859 32.859zm210.28-136.69-0.046875 97.594h-139.87v-125.02h137.11c1.875 9 2.8125 18.188 2.8125 27.422z"/>
 <path d="m304.97 565.5h39.891l4.7344 71.297c0.5625 8.1562 6.3281 15 14.25 16.969 1.5 0.32812 3 0.51562 4.4531 0.51562 6.4219 0 12.562-3.3281 16.031-9l87.844-144.47c3.5156-5.7656 3.6562-13.031 0.32812-18.938s-9.5625-9.5625-16.359-9.5625l-36.375 0.046875 15.844-42c2.1562-5.7656 1.3594-12.234-2.1094-17.297-3.5156-5.0625-9.2812-8.1094-15.422-8.1094h-79.125c-8.4375 0-15.844 5.625-18.094 13.734l-33.984 123.05c-1.5469 5.6719-0.375 11.719 3.1406 16.359 3.6094 4.6875 9.1406 7.4062 14.953 7.4062zm48.281-123.05h37.688l-15.844 42c-2.1562 5.7656-1.3594 12.234 2.1094 17.297 3.5156 5.0625 9.2812 8.1094 15.422 8.1094h30.188l-39.75 65.344-1.9688-29.672c-0.65625-9.8438-8.8594-17.484-18.703-17.484h-32.812z"/>
 <path d="m262.5 710.26h211.6c10.359 0 18.75-8.3906 18.75-18.75 0-10.359-8.3906-18.75-18.75-18.75h-211.6c-10.359 0-18.75 8.3906-18.75 18.75 0 10.359 8.3906 18.75 18.75 18.75z"/>
 <path d="m292.74 743.06h-28.359c-10.359 0-18.75 8.3906-18.75 18.75s8.3906 18.75 18.75 18.75h28.359c10.359 0 18.75-8.3906 18.75-18.75s-8.4375-18.75-18.75-18.75z"/>
 <path d="m382.5 743.06h-28.359c-10.359 0-18.75 8.3906-18.75 18.75s8.3906 18.75 18.75 18.75h28.359c10.359 0 18.75-8.3906 18.75-18.75s-8.4375-18.75-18.75-18.75z"/>
 <path d="m472.26 743.06h-28.359c-10.359 0-18.75 8.3906-18.75 18.75s8.3906 18.75 18.75 18.75h28.359c10.359 0 18.75-8.3906 18.75-18.75s-8.3906-18.75-18.75-18.75z"/>
</svg>
