<?xml version="1.0" encoding="UTF-8"?>
<svg width="1200pt" height="1200pt" version="1.1" viewBox="0 0 1200 1200" xmlns="http://www.w3.org/2000/svg">
 <path d="m1196.5 807.53c-98.613-80.539-191.88-169.22-277.22-263.58-55.844-61.758-109.25-127.03-158.75-194-50.285-68.055-127.34-111.47-211.4-119.11l-264.71-24.062c-45.656-4.1523-80.082-41.852-80.082-87.691v-109.56c0-5.2578-4.2656-9.5234-9.5234-9.5234h-185.29c-5.2578 0-9.5234 4.2656-9.5234 9.5234v1181c0 5.2578 4.2656 9.5234 9.5234 9.5234h516.4c5.2578 0 9.5234-4.2656 9.5234-9.5234v-445.86c4.543 2.3008 9.1172 4.6797 13.766 7.2461 34.367 18.973 66.973 43.051 96.918 71.566 18.672 17.785 43 26.797 67.398 26.797 5.1484 0 10.301-0.41016 15.402-1.2188l456.07 319.93c2.9102 2.043 6.7109 2.2891 9.8633 0.65234 3.1484-1.6367 5.1289-4.8984 5.1289-8.4492v-346.24c0-2.8555-1.2852-5.5625-3.5-7.3711zm-680.1 373.42h-497.36v-671.95c3.3086 4.4805 7 8.7109 11.09 12.609 42.078 40.105 88.328 74.195 137.46 101.32 83.723 46.223 155.09 61.309 218.11 74.629 45.664 9.6523 86.312 18.266 130.7 37.98zm664.55-38.125-428.54-300.61c7.75-3.3438 15.164-7.7305 22.02-13.188 22.156-17.648 35.582-44.004 36.84-72.312 1.2461-28.145-9.6992-55.41-30.043-74.801-42.07-40.102-88.32-74.191-137.46-101.32-83.492-46.09-154.76-61.156-217.64-74.449-56.77-11.996-105.8-22.363-163.98-54.488-34.375-18.977-66.98-43.051-96.918-71.562-35.145-33.465-90.301-35.867-128.31-5.6016-6.8281 5.4375-12.82 11.711-17.887 18.605l0.003906-374.05h166.25v100.04c0 55.758 41.875 101.61 97.406 106.66l264.71 24.062c36.023 3.2773 70.664 13.594 102.16 29.914 23.336 37.77 45.449 76.613 60.645 132.54 10.297 37.887 15.703 78.059 16.062 119.4 0.42969 48.527 37.09 89.809 85.277 96.027 4.2031 0.54297 8.375 0.80859 12.516 0.80859 39.898 0 76.031-24.551 90.809-61.105 82.309 89.98 171.72 174.7 266.06 252.04z"/>
</svg>
