<?xml version="1.0" encoding="UTF-8"?>
<svg width="1200pt" height="1200pt" version="1.1" viewBox="0 0 1200 1200" xmlns="http://www.w3.org/2000/svg">
 <path d="m799.2 544.8c-2.3984 2.3984-2.3984 4.8008-2.3984 9.6016 0 2.3984 0 7.1992 2.3984 9.6016 2.3984 2.3984 4.8008 2.3984 9.6016 2.3984 2.3984 0 7.1992 0 9.6016-2.3984 2.3984-2.3984 2.3984-4.8008 2.3984-9.6016 0-2.3984-2.3984-7.1992-2.3984-9.6016-4.8008-4.8008-14.402-4.8008-19.203 0z"/>
 <path d="m924 252c2.3984 2.3984 4.8008 2.3984 9.6016 2.3984 2.3984 0 7.1992-2.3984 7.1992-2.3984 4.8008-4.8008 4.8008-12 0-16.801s-12-4.8008-16.801 0-4.8008 12 0 16.801z"/>
 <path d="m842.4 530.4c2.3984 0 7.1992 0 9.6016-2.3984l194.4-194.4c12-12 16.801-26.398 16.801-43.199 0-16.801-7.1992-31.199-16.801-43.199l-26.398-26.398c-14.398-14.398-33.602-19.199-52.801-16.801-2.3984 0-7.1992 2.3984-7.1992 4.8008-2.3984 2.3984-2.3984 4.8008-2.3984 9.6016 0 7.1992 7.1992 12 14.398 9.6016 9.6016-2.3984 21.602 2.3984 31.199 9.6016l26.398 26.398c7.1992 7.1992 9.6016 14.398 9.6016 26.398 0 9.6016-4.8008 19.199-9.6016 26.398l-194.4 194.4c-2.3984 2.3984-4.8008 4.8008-4.8008 9.6016 0 2.3984 2.3984 7.1992 4.8008 9.6016 2.4023-2.4062 4.8008-0.007812 7.1992-0.007812z"/>
 <path d="m907.2 268.8c-4.8008-4.8008-12-4.8008-16.801 0l-213.6 211.2c-4.8008 4.8008-4.8008 12 0 16.801l93.602 93.602c2.3984 2.3984 4.8008 2.3984 9.6016 2.3984 2.3984 0 7.1992-2.3984 9.6016-2.3984 4.8008-4.8008 4.8008-12 0-16.801l-84-84 204-204c-0.003907-4.8008-0.003907-12-2.4062-16.801z"/>
 <path d="m710.4 636c19.199 0 40.801-7.1992 55.199-24 4.8008-4.8008 4.8008-12 0-16.801-4.8008-4.8008-12-4.8008-16.801 0-21.602 21.602-55.199 21.602-76.801 0-21.602-21.602-21.602-55.199 0-76.801 4.8008-4.8008 4.8008-12 0-16.801-4.8008-4.8008-12-4.8008-16.801 0-31.199 31.199-31.199 79.199 0 110.4 14.406 16.805 36.004 24.004 55.203 24.004z"/>
 <path d="m631.2 636c-4.8008-4.8008-12-4.8008-16.801 0l-129.6 129.6c-4.8008 4.8008-4.8008 12 0 16.801 2.3984 2.3984 4.8008 2.3984 9.6016 2.3984 4.8008 0 7.1992 0 9.6016-2.3984l129.6-129.6c2.3984-4.8008 2.3984-12-2.4023-16.801z"/>
 <path d="m420 885.6c0-21.602-16.801-38.398-38.398-38.398-21.602 0-38.398 16.801-38.398 38.398 0 21.602 16.801 38.398 38.398 38.398 21.598 0 38.398-16.801 38.398-38.398zm-38.398 14.398c-7.1992 0-14.398-7.1992-14.398-14.398 0-7.1992 7.1992-14.398 14.398-14.398 7.1992 0 14.398 7.1992 14.398 14.398 0 7.1992-4.8008 14.398-14.398 14.398z"/>
 <path d="m321.6 1032h4.8008c2.3984 0 7.1992-2.3984 9.6016-4.8008 14.398-14.398 33.602-21.602 55.199-19.199 7.1992 0 12-4.8008 14.398-9.6016 0-2.3984 0-7.1992-2.3984-9.6016-2.3984-2.3984-4.8008-4.8008-7.1992-4.8008-19.199-2.3984-38.398 2.3984-57.602 12-7.1992-33.602-33.602-57.602-64.801-64.801 9.6016-14.398 12-28.801 12-45.602s-4.8008-33.602-14.398-50.398c2.3984-2.3984 2.3984-4.8008 2.3984-7.1992 0-7.1992-7.1992-12-12-12h-9.6016c-4.8008 0-9.6016 2.3984-12 7.1992-2.3984 4.8008 0 9.6016 2.3984 14.398 14.398 12 21.602 28.801 21.602 45.602 0 19.199-7.1992 36-21.602 48-4.8008 4.8008-4.8008 9.6016-2.3984 14.398 2.3984 4.8008 7.1992 7.1992 12 7.1992h2.3984c33.602 0 62.398 28.801 62.398 62.398v2.3984c-2.3984 7.2109 0.003906 12.012 4.8047 14.41z"/>
 <path d="m424.8 1008c-2.3984 2.3984-2.3984 4.8008-2.3984 9.6016 0 2.3984 2.3984 4.8008 2.3984 7.1992 2.3984 2.3984 4.8008 2.3984 7.1992 2.3984s7.1992 0 9.6016-2.3984c4.8008-4.8008 4.8008-12 0-16.801-2.4023-4.8008-12-4.8008-16.801 0z"/>
 <path d="m458.4 986.4c12-19.199 33.602-33.602 55.199-33.602h2.3984c4.8008 0 9.6016-2.3984 12-7.1992 2.3984-4.8008 0-9.6016-2.3984-14.398-14.398-12-21.602-28.801-21.602-48s7.1992-33.602 21.602-45.602c2.3984-2.3984 4.8008-9.6016 2.3984-14.398-2.3984-4.8008-7.1992-7.1992-12-7.1992h-2.3984c-36 0-62.398-28.801-62.398-62.398v-2.3984c0-4.8008-2.3984-9.6016-7.1992-12s-9.6016 0-14.398 2.3984c-12 14.398-28.801 21.602-48 21.602-19.199 0-36-7.1992-48-21.602-2.3984-2.3984-9.6016-4.8008-14.398-2.3984-4.8008 2.3984-7.1992 7.1992-7.1992 12v2.3984 12c0 2.3984 0 7.1992 2.3984 9.6016 2.3984 2.3984 4.8008 4.8008 7.1992 4.8008 4.8008 0 9.6016-2.3984 12-7.1992 14.398 9.6016 31.199 12 45.602 12 16.801 0 31.199-4.8008 45.602-12 7.1992 31.199 33.602 57.602 64.801 64.801-9.6016 14.398-12 28.801-12 45.602s4.8008 33.602 12 45.602c-24 4.8008-45.602 21.602-57.602 43.199-2.3984 2.3984-2.3984 7.1992 0 9.6016 0 2.3984 2.3984 4.8008 4.8008 7.1992 2.3984 0 4.8008 2.3984 7.1992 2.3984 7.1953-0.007812 11.996-2.4062 14.395-4.8086z"/>
 <path d="m309.6 818.4c2.3984-2.3984 4.8008-4.8008 4.8008-7.1992 0-2.3984 0-7.1992-2.3984-9.6016-4.8008-4.8008-12-4.8008-16.801 0-2.3984 2.3984-4.8008 4.8008-4.8008 7.1992s0 7.1992 2.3984 9.6016c2.3984 2.3984 4.8008 4.8008 9.6016 4.8008 2.3984-2.3984 4.7969-2.3984 7.1992-4.8008z"/>
 <path d="m182.4 1008c2.3984 4.8008 7.1992 4.8008 9.6016 4.8008 2.3984 0 4.8008 0 7.1992-2.3984 4.8008-2.3984 7.1992-9.6016 4.8008-16.801-2.3984-4.8008-12-7.1992-16.801-4.8008-7.1992 4.8008-7.1992 12-4.8008 19.199z"/>
 <path d="m160.8 962.4c2.3984 4.8008 7.1992 7.1992 12 7.1992h4.8008c7.1992-2.3984 9.6016-9.6016 7.1992-14.398-7.1992-21.602-12-45.602-12-67.199 0-2.3984-2.3984-7.1992-2.3984-7.1992-2.3984-2.3984-4.8008-4.8008-9.6016-4.8008h-122.4c-7.1992 0-12 4.8008-12 12s4.8008 12 12 12h110.4c2.4023 19.199 4.8047 40.801 12.004 62.398z"/>
 <path d="m604.8 873.6c-4.8008 0-9.6016 2.3984-12 7.1992v4.8008c0 115.2-93.602 208.8-208.8 208.8-57.602 0-110.4-21.602-151.2-64.801-4.8008-4.8008-12-4.8008-16.801 0-2.3984 2.3984-2.3984 4.8008-2.3984 9.6016 0 2.3984 2.3984 7.1992 2.3984 9.6016 45.602 45.602 105.6 72 168 72 124.8 0 228-98.398 232.8-220.8h530.4c7.1992 0 12-4.8008 12-12 0-7.1992-4.8008-12-12-12l-542.4-0.003906z"/>
 <path d="m988.8 340.8c2.3984-2.3984 2.3984-4.8008 2.3984-9.6016 0-2.3984 0-7.1992-2.3984-9.6016-4.8008-4.8008-12-4.8008-16.801 0-2.3984 2.3984-2.3984 4.8008-2.3984 9.6016 0 2.3984 2.3984 7.1992 2.3984 9.6016 2.3984 2.3984 4.8008 2.3984 9.6016 2.3984 0 2.4023 4.7969 0 7.1992-2.3984z"/>
 <path d="m955.2 357.6c-4.8008-4.8008-12-4.8008-16.801 0l-136.8 136.8c-4.8008 4.8008-4.8008 12 0 16.801 2.3984 2.3984 4.8008 2.3984 9.6016 2.3984 2.3984 0 7.1992 0 9.6016-2.3984l136.8-136.8c0-2.4023 0-12.004-2.4023-16.801z"/>
</svg>
