<?xml version="1.0" encoding="UTF-8"?>
<svg width="1200pt" height="1200pt" version="1.1" viewBox="0 0 1200 1200" xmlns="http://www.w3.org/2000/svg">
 <path d="m292.32 984.52-111.73-64.504c-4.0742-2.3438-7.2266-6.0078-8.9297-10.387-1.707-4.3789-1.8633-9.207-0.44922-13.688 8.3828-26.508 23.352-80.363 17.809-111.04-7.7031-36.844-19.199-72.793-34.309-107.27-13.008-34.344-20.68-70.469-22.758-107.13-0.47656-6.9688-0.72656-13.754-0.69922-20.266 1.3086-56.629 15.516-112.21 41.539-162.52l1.1641-2.3984c3.0352-6.2031 6.0664-12.41 9.082-18.68h0.003907c12.488-27.398 26.488-54.082 41.926-79.938 2.8984-4.6367 5.8438-9.7422 8.8438-15.031l0.30859-0.53516c8.5898-16.508 19.352-31.793 32-45.445 8.7852-8.3711 30.082-20.547 47.902-6.7461 21.539 16.77 9.5742 45.473 9.3867 45.805l-6.5547 19.809v-0.003906c3.0391 1.2344 5.7734 3.1133 8.0156 5.5078 7.1133 9.9102 9.8008 22.328 7.4141 34.293-0.23828 1.8359-2.8828 10.406-4.9922 17.199 3.6992 2.2539 6.8242 5.332 9.125 9 9.3125 14.758 4.5508 36.594 2.8281 43.004l-31.34 61.691c-3.875-13.934-12.09-26.27-23.453-35.215-9.4961-7.207-20.969-11.344-32.879-11.859-11.91-0.51172-23.695 2.6211-33.777 8.9844-14.957 11.203-24.137 28.5-25.035 47.164-3.6016 32.707-3.2109 65.73 1.1641 98.344 3.2617 26.047 10.176 51.5 20.543 75.617 1.9844 4.6367 4.0508 9.2148 6.1758 13.695l-0.003906 0.003906c1.5195 3.1992 4.2734 5.6445 7.6289 6.7812 3.3555 1.1328 7.0312 0.85938 10.18-0.76172 6.2578-3.2031 8.8438-10.793 5.8477-17.148-1.9883-4.2227-3.9102-8.5156-5.7695-12.875v-0.003907c-9.418-21.875-15.699-44.973-18.664-68.605-4.0898-30.492-4.4648-61.371-1.1211-91.953 0.35547-11.078 5.3555-21.492 13.77-28.703 5.5938-3.1875 11.988-4.6836 18.414-4.3047s12.602 2.6133 17.781 6.4375c14.805 11.234 17.25 32.184 17.875 46.973 2.0898 51.027 9.5703 65.059 10.852 67.117 5.6953 6.1953 74.887 82.797 79.305 151.08 2.4102 16.262 12.035 103.46-36.121 219.09l-18.719 48.945c-2.1602 5.6406-6.6797 10.047-12.375 12.062-5.6914 2.0117-11.98 1.4297-17.203-1.5977z"/>
 <path d="m907.68 984.52 111.73-64.508v0.003906c4.0742-2.3438 7.2266-6.0078 8.9297-10.387 1.707-4.3789 1.8633-9.207 0.44922-13.688-8.3828-26.508-23.352-80.363-17.809-111.04 7.7031-36.844 19.199-72.793 34.309-107.27 13.008-34.344 20.68-70.473 22.758-107.13 0.47656-6.9688 0.72656-13.754 0.69922-20.266-1.3086-56.629-15.516-112.21-41.539-162.52l-1.1641-2.3984c-3.0352-6.2031-6.0664-12.41-9.082-18.68h-0.003907c-12.488-27.398-26.488-54.082-41.926-79.938-2.8984-4.6367-5.8438-9.7422-8.8438-15.031l-0.30859-0.53516c-8.5898-16.508-19.352-31.793-32-45.445-8.7852-8.3711-30.082-20.547-47.902-6.7461-21.539 16.77-9.5742 45.473-9.3867 45.805l6.5547 19.809v-0.003906c-3.0391 1.2344-5.7734 3.1133-8.0156 5.5078-7.1133 9.9102-9.8008 22.328-7.4141 34.293 0.23828 1.8359 2.8828 10.406 4.9922 17.199-3.6992 2.25-6.8242 5.332-9.125 9-9.3125 14.758-4.5508 36.594-2.8281 43.004l31.336 61.688 0.003906 0.003906c3.8711-13.934 12.09-26.27 23.453-35.215 9.4961-7.207 20.969-11.344 32.879-11.859 11.91-0.51172 23.695 2.6211 33.777 8.9844 14.957 11.203 24.137 28.5 25.035 47.164 3.6016 32.707 3.2109 65.73-1.168 98.344-3.2578 26.047-10.176 51.5-20.539 75.617-1.9844 4.6367-4.0508 9.2148-6.1758 13.695l0.003906 0.003906c-1.5234 3.1992-4.2734 5.6445-7.6289 6.7812-3.3594 1.1328-7.0312 0.85938-10.18-0.76172-6.2578-3.2031-8.8438-10.793-5.8477-17.148 1.9883-4.2227 3.9102-8.5156 5.7695-12.875v-0.003907c9.418-21.875 15.699-44.973 18.664-68.605 4.0859-30.492 4.4648-61.371 1.1211-91.953-0.35547-11.078-5.3555-21.492-13.773-28.703-5.5898-3.1875-11.984-4.6836-18.41-4.3047s-12.602 2.6133-17.781 6.4375c-14.805 11.234-17.25 32.184-17.875 46.973-2.0898 51.027-9.5703 65.059-10.852 67.117-5.6953 6.1953-74.887 82.797-79.305 151.08-2.4102 16.262-12.035 103.46 36.121 219.09l18.715 48.949v-0.003906c2.1602 5.6406 6.6836 10.047 12.379 12.062 5.6914 2.0117 11.98 1.4297 17.203-1.5977z"/>
 <path d="m773.81 293.03c-0.73828-8.7305-4.7539-16.855-11.238-22.742-6.4844-5.8828-14.961-9.0938-23.719-8.9844h-2.3203c1.3125-14.551 3.3594-29.266 6.1484-44.145h0.003906c0.003906-3.0859-1.5898-5.9531-4.2109-7.582-2.6211-1.625-5.8984-1.7812-8.6602-0.41016-83.699 40.824-170.14 42.137-259.7-0.24609h-0.003906c-2.7617-1.3359-6.0195-1.1562-8.6172 0.47656-2.5977 1.6328-4.1758 4.4883-4.1719 7.5547 3.2852 14.621 5.6523 29.434 7.0938 44.352h-3.2461c-8.7617-0.11328-17.238 3.0977-23.727 8.9883-6.4883 5.8867-10.508 14.016-11.246 22.746-0.59766 9.3594 2.6992 18.547 9.1172 25.387 6.418 6.8398 15.379 10.719 24.754 10.715h4.3047c-0.73438 7.7344-1.7266 15.473-2.9844 23.207v0.003906c-0.8125 6.1719 2.7305 12.094 8.5547 14.297l0.17188 0.078124c5.4102 2.582 10.863 4.9609 16.23 7.2148h-0.003906c35.793 15.832 74.488 24.039 113.62 24.105 39.137 0.0625 77.859-8.0195 113.7-23.734 5.3711-2.2539 10.781-4.7148 16.148-7.3359l0.003906-0.003906c0.17969-0.089844 0.36719-0.16797 0.55859-0.23438 5.8398-2.0547 9.3828-7.9805 8.4375-14.098-1.1836-7.7617-2.1055-15.594-2.7656-23.5h3.9336c9.375 0 18.332-3.8828 24.742-10.723 6.4102-6.8438 9.6992-16.031 9.0898-25.387zm-95.723 0c-25.145 5.5508-50.82 8.3125-76.57 8.2383-26.625 0.023438-53.18-2.7344-79.23-8.2383-4.0508-0.88281-7.5469-3.4141-9.6484-6.9883-2.1016-3.5703-2.6172-7.8594-1.418-11.828v-0.082032c1.082-3.5586 3.457-6.5859 6.6562-8.4844 3.2031-1.8945 7-2.5234 10.641-1.7617 47.246 9.9531 96.043 9.9805 143.3 0.082031 3.707-0.80469 7.5781-0.15625 10.82 1.8125 3.2422 1.9648 5.6055 5.1016 6.6016 8.7617 1.082 3.9375 0.5 8.1406-1.6094 11.637-2.1055 3.4961-5.5547 5.9727-9.5391 6.8516z"/>
 <path d="m773.81 491c-0.73828-8.7266-4.7539-16.852-11.238-22.738-6.4844-5.8867-14.961-9.0977-23.719-8.9883h-2.3203c1.3125-14.551 3.3594-29.266 6.1484-44.145h0.003906c0.003906-3.082-1.5898-5.9531-4.2109-7.5781-2.6211-1.6289-5.8984-1.7852-8.6602-0.41406-83.699 40.824-170.14 42.137-259.7-0.24609h-0.003906c-2.7617-1.3359-6.0195-1.1523-8.6172 0.48047-2.5977 1.6289-4.1758 4.4844-4.1719 7.5547 3.2852 14.621 5.6523 29.434 7.0938 44.348h-3.2461c-8.7617-0.10938-17.238 3.1016-23.727 8.9883-6.4883 5.8906-10.508 14.016-11.246 22.746-0.59766 9.3594 2.6992 18.551 9.1172 25.391 6.418 6.8359 15.379 10.715 24.754 10.715h4.3047c-0.73438 7.7344-1.7266 15.473-2.9844 23.207-0.8125 6.1758 2.7305 12.098 8.5547 14.301l0.17188 0.078125c5.4102 2.582 10.863 4.9609 16.23 7.2148h-0.003906c35.793 15.832 74.488 24.039 113.62 24.102 39.137 0.0625 77.859-8.0195 113.7-23.734 5.3711-2.2539 10.781-4.7148 16.148-7.3359h0.003906c0.17969-0.089844 0.36719-0.16797 0.55859-0.23828 5.8398-2.0547 9.3828-7.9766 8.4375-14.098-1.1836-7.7617-2.1055-15.594-2.7656-23.5h3.9336v0.003907c9.375 0 18.332-3.8828 24.742-10.727 6.4102-6.8398 9.6992-16.031 9.0898-25.387zm-95.723 0c-25.145 5.5508-50.82 8.3164-76.57 8.2383-26.625 0.027343-53.18-2.7344-79.23-8.2383-4.0508-0.87891-7.5469-3.4141-9.6484-6.9844-2.1016-3.5742-2.6172-7.8594-1.418-11.828v-0.082031c1.082-3.5625 3.457-6.5898 6.6562-8.4844 3.2031-1.8984 7-2.5273 10.641-1.7617 47.246 9.9531 96.043 9.9805 143.3 0.082031 3.707-0.80859 7.5781-0.16016 10.82 1.8086 3.2422 1.9688 5.6055 5.1055 6.6016 8.7656 1.082 3.9336 0.5 8.1406-1.6094 11.637-2.1055 3.4922-5.5547 5.9688-9.5391 6.8477z"/>
 <path d="m773.81 688.98c-0.73828-8.7305-4.7539-16.852-11.238-22.738-6.4844-5.8867-14.961-9.0977-23.719-8.9883h-2.3203c1.3125-14.551 3.3594-29.266 6.1484-44.145h0.003906c0.003906-3.0859-1.5898-5.9531-4.2109-7.582-2.6211-1.625-5.8984-1.7812-8.6602-0.41016-83.699 40.824-170.14 42.137-259.7-0.24609h-0.003906c-2.7617-1.3359-6.0195-1.1562-8.6172 0.47656-2.5977 1.6328-4.1758 4.4883-4.1719 7.5547 3.2852 14.621 5.6523 29.434 7.0938 44.352h-3.2461c-8.7617-0.11328-17.238 3.0977-23.727 8.9883-6.4883 5.8867-10.508 14.016-11.246 22.746-0.59766 9.3594 2.6992 18.547 9.1172 25.387 6.418 6.8398 15.379 10.719 24.754 10.715h4.3047c-0.73438 7.7344-1.7266 15.473-2.9844 23.207v0.003906c-0.8125 6.1719 2.7305 12.094 8.5547 14.301l0.17188 0.078126c5.4102 2.582 10.863 4.9609 16.23 7.2148v-0.003906c35.789 15.832 74.484 24.043 113.62 24.105 39.137 0.0625 77.859-8.0195 113.7-23.734 5.3711-2.2539 10.781-4.7148 16.148-7.3359l0.003906-0.003906c0.17969-0.089844 0.36719-0.16797 0.55859-0.23438 5.8398-2.0547 9.3828-7.9805 8.4375-14.098-1.1836-7.7617-2.1055-15.594-2.7656-23.5h3.9336c9.375 0 18.332-3.8828 24.742-10.723 6.4102-6.8438 9.6992-16.031 9.0898-25.387zm-95.723 0c-25.145 5.5508-50.82 8.3125-76.57 8.2383-26.625 0.027344-53.18-2.7344-79.23-8.2383-4.0508-0.88281-7.5469-3.4141-9.6484-6.9883-2.1016-3.5703-2.6172-7.8594-1.418-11.828v-0.082031c1.082-3.5586 3.457-6.5859 6.6562-8.4844 3.2031-1.8945 7-2.5234 10.641-1.7617 47.246 9.9531 96.043 9.9805 143.3 0.082031 3.707-0.80469 7.5781-0.15625 10.82 1.8125 3.2422 1.9648 5.6055 5.1055 6.6016 8.7617 1.082 3.9375 0.5 8.1445-1.6094 11.637-2.1055 3.4961-5.5547 5.9727-9.5391 6.8516z"/>
 <path d="m773.81 886.95c-0.73828-8.7266-4.7539-16.852-11.238-22.738-6.4844-5.8867-14.961-9.0977-23.719-8.9844h-2.3203c1.3125-14.551 3.3594-29.266 6.1484-44.145l0.003906-0.003907c0.003906-3.082-1.5898-5.9492-4.2109-7.5781s-5.8984-1.7852-8.6602-0.41406c-83.699 40.824-170.14 42.137-259.7-0.24609h-0.003906c-2.7617-1.332-6.0195-1.1523-8.6172 0.48047-2.5977 1.6328-4.1758 4.4844-4.1719 7.5547 3.2852 14.621 5.6523 29.434 7.0938 44.352h-3.2461c-8.7617-0.11328-17.238 3.0977-23.727 8.9844-6.4883 5.8906-10.508 14.016-11.246 22.75-0.59766 9.3555 2.6992 18.547 9.1172 25.387 6.418 6.8359 15.379 10.715 24.754 10.715h4.3047c-0.73438 7.7344-1.7266 15.473-2.9844 23.207-0.8125 6.1758 2.7305 12.098 8.5547 14.301l0.17188 0.078125c5.4102 2.582 10.863 4.9609 16.23 7.2148h-0.003906c35.793 15.832 74.488 24.039 113.62 24.102 39.137 0.066406 77.859-8.0195 113.7-23.734 5.3711-2.2539 10.781-4.7148 16.148-7.3359h0.003906c0.17969-0.089844 0.36719-0.16797 0.55859-0.23438 5.8398-2.0586 9.3828-7.9805 8.4375-14.098-1.1836-7.7617-2.1055-15.594-2.7656-23.5h3.9336c9.375 0 18.332-3.8828 24.742-10.723 6.4102-6.8438 9.6992-16.035 9.0898-25.391zm-95.723 0c-25.145 5.5508-50.82 8.3164-76.57 8.2383-26.625 0.027344-53.18-2.7344-79.23-8.2383-4.0508-0.87891-7.5469-3.4141-9.6484-6.9844-2.1016-3.5742-2.6172-7.8594-1.418-11.828v-0.082031c1.082-3.5625 3.457-6.5898 6.6562-8.4844 3.2031-1.8984 7-2.5273 10.641-1.7617 47.246 9.9531 96.043 9.9805 143.3 0.082031 3.707-0.80469 7.5781-0.16016 10.82 1.8086 3.2422 1.9688 5.6055 5.1055 6.6016 8.7656 1.082 3.9336 0.5 8.1406-1.6094 11.637-2.1055 3.4922-5.5547 5.9688-9.5391 6.8477z"/>
</svg>
