<?xml version="1.0" encoding="UTF-8"?>
<svg width="1200pt" height="1200pt" version="1.1" viewBox="0 0 1200 1200" xmlns="http://www.w3.org/2000/svg">
 <path d="m975 281.25c0-32.699-21.148-60.262-50.398-70.52 8.1367-11.98 12.898-26.438 12.898-41.98 0-41.363-33.637-75-75-75h-37.5c0-41.363-33.637-75-75-75h-262.5c-69.73 0-128.34 47.906-145.07 112.5h-98.68v37.5h93.75v37.5h37.5v-37.5c0-62.043 50.457-112.5 112.5-112.5h262.5c20.68 0 37.5 16.82 37.5 37.5v112.5c0 20.68-16.82 37.5-37.5 37.5s-37.5-16.82-37.5-37.5v-56.25c0-10.352-8.3984-18.75-18.75-18.75h-131.25v-37.5h-37.5v75c0 41.363-33.637 75-75 75v37.5c20.68 0 37.5 16.82 37.5 37.5v75h37.5v-75c0-19.969-7.9688-38.043-20.758-51.508 34.688-19.18 58.258-56.117 58.258-98.492h37.5v337.5c0 41.363 33.637 75 75 75h75v49.648c0 69.133 34.332 133.27 91.836 171.6l3.1133 2.0625c10.988 7.3516 17.551 19.613 17.551 32.812 0 17.512-11.758 33.094-29.289 38.082-56.941 16.293-115.88 24.543-175.12 24.543h-3.6758c-59.25 0-118.18-8.25-175.82-24.73-16.832-4.8008-28.59-20.383-28.59-37.895 0-13.199 6.5625-25.461 17.551-32.793l3.1133-2.0625c57.504-38.324 91.836-102.49 91.836-171.62v-237.15h-37.5v112.5h-37.5c-62.043 0-112.5-50.457-112.5-112.5h-37.5c0 12.977 1.8203 25.48 4.9297 37.5h-98.68v37.5h114.04c25.988 44.758 74.324 75 129.71 75h37.5v87.148c0 56.57-28.086 109.03-75.148 140.4l-3.1133 2.0625c-21.434 14.328-34.238 38.234-34.238 64.016 0 34.164 22.949 64.574 56.477 74.156 60.316 17.23 122.7 25.969 185.44 25.969h3.6758c62.738 0 125.12-8.7383 186.11-26.176 32.848-9.375 55.797-39.785 55.797-73.949 0-25.781-12.805-49.688-34.258-63.992l-3.1133-2.0625c-47.043-31.371-75.129-83.852-75.129-140.42v-49.648h37.5c41.363 0 75-33.637 75-75 0-15.543-4.7617-30-12.898-41.98 29.25-10.258 50.398-37.82 50.398-70.52 0-15.543-4.7617-30-12.898-41.98 29.25-10.258 50.398-37.82 50.398-70.52zm-112.5-150c20.68 0 37.5 16.82 37.5 37.5s-16.82 37.5-37.5 37.5h-37.5v-75zm-187.5 37.5v37.5h-37.5v-37.5zm150 375h-150c-20.68 0-37.5-16.82-37.5-37.5v-37.5h187.5c20.68 0 37.5 16.82 37.5 37.5s-16.82 37.5-37.5 37.5zm37.5-112.5h-225v-75h225c20.68 0 37.5 16.82 37.5 37.5s-16.82 37.5-37.5 37.5zm37.5-112.5h-262.5v-75h47.926c13.012 22.312 36.938 37.5 64.574 37.5s51.562-15.188 64.574-37.5h85.426c20.68 0 37.5 16.82 37.5 37.5s-16.82 37.5-37.5 37.5z"/>
 <path d="m510.84 806.81-9.168 36.355 3.3945 0.84375c49.047 12.281 99.543 18.488 150.04 18.488h2.2695c50.512 0 100.99-6.207 150.11-18.469l3.3359-0.84375-9.168-36.355-3.3008 0.84375c-46.086 11.473-93.523 17.324-140.96 17.324h-2.2695c-47.438 0-94.875-5.8516-140.95-17.344z"/>
 <path d="m656.25 1143.8c-103.39 0-187.5-84.113-187.5-187.5h-37.5c0 124.07 100.93 225 225 225s225-100.93 225-225h-37.5c0 103.39-84.113 187.5-187.5 187.5z"/>
 <path d="m543.75 956.25h-37.5c0 82.707 67.293 150 150 150s150-67.293 150-150h-37.5c0 62.043-50.457 112.5-112.5 112.5s-112.5-50.457-112.5-112.5z"/>
 <path d="m731.25 956.25h-37.5c0 20.68-16.82 37.5-37.5 37.5s-37.5-16.82-37.5-37.5h-37.5c0 41.363 33.637 75 75 75s75-33.637 75-75z"/>
</svg>
