<?xml version="1.0" encoding="UTF-8"?>
<svg width="1200pt" height="1200pt" version="1.1" viewBox="0 0 1200 1200" xmlns="http://www.w3.org/2000/svg">
 <path d="m1086.4 582.71c-19.266-33.328-62.062-44.812-95.344-25.547l-132.79 76.641c-0.375-6.3281-1.5469-12.75-3.6562-19.359-20.953-65.484-83.156-50.203-149.02-34.031-50.25 12.328-107.25 26.344-166.03 16.031-144.47-25.312-216.84 52.781-224.9 62.156l-105.09 105.09-5.4844-5.4844c-22.828-22.781-59.906-22.781-82.734 0-22.828 22.828-22.828 59.953 0 82.734l194.39 194.39c11.062 11.062 25.734 17.156 41.391 17.156 15.609 0 30.328-6.0938 41.344-17.156 11.062-11.062 17.156-25.734 17.156-41.391 0-15.609-6.0938-30.328-17.156-41.344l-8.7188-8.7188 81.469-81.469h194.81c3.1875-0.046875 78.609-1.8281 127.26-29.906l267.47-154.45c16.172-9.3281 27.703-24.375 32.531-42.375 4.875-18.047 2.4375-36.844-6.8906-52.969zm-713.39 427.18c-8.4844 8.5312-23.297 8.4844-31.828 0l-194.39-194.39c-8.7656-8.7656-8.7656-23.062 0-31.828 4.4062-4.3594 10.172-6.5625 15.891-6.5625 5.7656 0 11.531 2.2031 15.891 6.5625l194.39 194.39c4.2656 4.2656 6.6094 9.8906 6.6094 15.891 0.046875 6.0469-2.2969 11.672-6.5625 15.938zm685.6-383.53c-2.3438 8.7188-7.9219 16.031-15.75 20.531l-267.52 154.45c-40.547 23.438-109.27 25.078-109.59 25.078h-201.94c-4.7812 0-9.3281 1.875-12.75 5.25l-86.766 86.766-129.28-129.28 105.61-105.61c0.375-0.375 0.79688-0.84375 1.125-1.2188 2.4844-3 62.859-72.938 191.63-50.391 66.234 11.625 129.74-4.0312 180.79-16.547 75.094-18.422 96.75-19.266 106.12 10.031 3.375 10.5 2.7656 19.172-1.8281 27.281-18.375 32.25-93.75 49.547-143.63 61.031-20.391 4.6875-38.016 8.7188-50.625 13.219-9.375 3.3281-14.25 13.594-10.922 22.969 3.3281 9.375 13.641 14.25 22.969 10.922 10.641-3.7969 27.328-7.5938 46.641-12.047 53.672-12.328 118.5-27.281 152.48-60.234l173.63-100.22c7.8281-4.5 16.922-5.7188 25.641-3.375s16.031 7.9219 20.531 15.75c4.5469 7.7812 5.7188 16.922 3.4219 25.641z"/>
 <path d="m522.74 385.74h76.828v76.828c0 9.9375 8.0625 18 18 18h107.34c9.9375 0 18-8.0625 18-18v-76.828h76.781c9.9375 0 18-8.0625 18-18v-107.34c0-9.9375-8.0625-18-18-18h-76.781v-76.828c0-9.9375-8.0625-18-18-18h-107.34c-9.9375 0-18 8.0625-18 18v76.828h-76.828c-9.9375 0-18 8.0625-18 18v107.34c0 9.9375 8.0625 18 18 18zm18-107.39h76.828c9.9375 0 18-8.0625 18-18v-76.828h71.344v76.828c0 9.9375 8.0625 18 18 18h76.781v71.344h-76.781c-9.9375 0-18 8.0625-18 18v76.828h-71.344v-76.828c0-9.9375-8.0625-18-18-18h-76.828z"/>
</svg>
