<?xml version="1.0" encoding="UTF-8"?>
<svg width="1200pt" height="1200pt" version="1.1" viewBox="0 0 1200 1200" xmlns="http://www.w3.org/2000/svg">
 <path d="m422.09 989.76c5.8086 9.5156 2.7969 21.926-6.707 27.719l-10.066 6.1445c-21.926 13.367-47.062 20.062-72.191 20.062s-50.258-6.6953-72.18-20.062l-4.0781-2.4844c-9.5156-5.8086-12.527-18.215-6.7422-27.73 5.7969-9.4922 18.191-12.527 27.707-6.7422l4.1172 2.4961c31.129 18.984 71.305 18.961 102.38 0.023438l10.066-6.1445c9.4844-5.8477 21.895-2.8125 27.691 6.7188zm500.1-3.0977-4.1172 2.5195c-31.078 18.938-71.27 18.938-102.38 0l-10.066-6.1445c-9.5039-5.832-21.938-2.7969-27.707 6.707-5.7969 9.5156-2.7969 21.926 6.7188 27.719l10.066 6.1445c21.938 13.367 47.062 20.062 72.191 20.062 25.117 0 50.242-6.6953 72.168-20.039l4.1055-2.4961c9.5039-5.8086 12.527-18.215 6.7422-27.73-5.8047-9.5039-18.238-12.527-27.719-6.7422zm71.051-120.85h-0.19141c-25.246 0.23828-49.738 7.1641-70.859 20.027l-4.1289 2.5195c-31.078 18.949-71.258 18.949-102.36 0l-10.066-6.1445c-9.5039-5.832-21.938-2.7969-27.707 6.7188-5.7969 9.5156-2.7969 21.91 6.7188 27.707l10.066 6.1445c21.938 13.367 47.062 20.074 72.191 20.074s50.258-6.6953 72.168-20.051l4.1172-2.5195c14.902-9.0703 32.293-13.98 50.242-14.137 11.137-0.097656 20.074-9.2148 19.98-20.363-0.11719-11.074-9.1172-19.977-20.172-19.977zm-598.86 16.402-10.066 6.1445c-31.105 18.949-71.27 18.973-102.38-0.023437l-4.0938-2.4844c-24.238-14.809-53.449-21.91-82.512-19.668-11.113 0.80469-19.453 10.453-18.648 21.562 0.81641 11.113 10.488 19.559 21.59 18.648 20.664-1.4414 41.449 3.4219 58.598 13.895l4.0938 2.4844c21.91 13.367 47.051 20.074 72.18 20.074 25.141 0 50.27-6.6953 72.191-20.074l10.066-6.1445c9.5039-5.7852 12.516-18.191 6.707-27.707-5.8086-9.5273-18.219-12.574-27.723-6.707zm0-121.01-10.066 6.1445c-31.105 18.949-71.281 18.973-102.38-0.023437l-4.1055-2.4844c-47.34-28.871-109.04-26.426-153.55 6.1445-8.9883 6.5742-10.957 19.188-4.3672 28.176 6.5742 8.9883 19.211 10.969 28.188 4.3555 31.465-22.98 75.156-24.758 108.76-4.2344l4.0781 2.4844c21.926 13.367 47.062 20.074 72.18 20.074 25.129 0 50.27-6.6953 72.191-20.074l10.066-6.1445c9.5039-5.7852 12.516-18.191 6.707-27.707-5.7812-9.5195-18.191-12.578-27.695-6.7109zm681.35 9.793c-44.484-32.594-106.21-35.016-153.54-6.168l-4.1172 2.5195c-31.078 18.949-71.27 18.949-102.38 0l-10.066-6.1445c-9.5039-5.832-21.938-2.7969-27.707 6.7188-5.7969 9.5156-2.7969 21.91 6.7188 27.707l10.066 6.1445c21.938 13.367 47.062 20.074 72.191 20.074 25.117 0 50.242-6.6953 72.168-20.051l4.1172-2.5195c33.574-20.461 77.258-18.77 108.74 4.2617 8.9766 6.6133 21.613 4.6211 28.176-4.3555 6.5898-9 4.6211-21.613-4.3672-28.188zm-927.65-88.465c31.465-23.004 75.156-24.758 108.76-4.2344l4.0781 2.4844c21.469 13.105 46.738 20.051 72.324 20.051 4.3789 0 8.7617-0.21484 13.152-0.61328 11.09-1.043 19.234-10.883 18.191-21.984-1.0312-11.09-10.957-19.199-21.961-18.191-21.48 1.9922-42.938-2.8672-60.707-13.703l-4.1055-2.4844c-47.34-28.871-109.04-26.426-153.55 6.1445-8.9883 6.5742-10.957 19.188-4.3672 28.176 6.5898 8.9883 19.215 10.969 28.188 4.3555zm927.65-32.531c-44.484-32.555-106.21-35.016-153.54-6.168l-4.1289 2.5195c-14.676 8.9648-31.789 13.848-49.488 14.125-11.137 0.17969-20.016 9.3477-19.836 20.484 0.16797 11.027 9.1797 19.848 20.148 19.848h0.33594c24.898-0.39453 49.055-7.332 69.84-20.016l4.1172-2.5195c33.574-20.461 77.258-18.77 108.74 4.2617 8.9766 6.6133 21.613 4.6328 28.176-4.3555 6.5898-8.9922 4.6211-21.605-4.3672-28.18zm4.3828-92.82c-6.5625 8.9883-19.199 10.969-28.176 4.3555-31.488-23.016-75.18-24.742-108.74-4.2617l-4.1172 2.5195c-41.566 25.32-94.633 26.594-137.39 3.8867v74.688c0 29.832-23.555 57.625-52.5 61.957-9.9492 1.4023-19.465 0.43359-28.164-2.4844v365.96c0 11.148-9.0234 20.16-20.172 20.16l-80.691 0.003906c-7.332 0-14.219-1.9688-20.16-5.4102-5.9414 3.4453-12.828 5.4102-20.172 5.4102h-80.664c-11.137 0-20.16-9.0117-20.16-20.16v-346.12c-6.1094 2.1016-12.637 3.3125-19.453 3.3125-34.078 0-61.211-27.133-61.211-60.492v-96.805c-42.758 22.715-95.844 21.434-137.41-3.9102l-4.0781-2.4844c-33.602-20.52-77.305-18.77-108.76 4.2344-8.9766 6.6133-21.602 4.6211-28.188-4.3555-6.5742-9-4.6211-21.602 4.3672-28.176 44.508-32.566 106.21-35.016 153.55-6.1445l4.1055 2.4844c31.129 19.008 71.305 18.949 102.38 0.023437l10.066-6.1445c1.2969-0.78125 2.6406-1.4766 3.9609-2.2188v-118.66c0-66.719 54.277-121 121-121h8.2305c-11.449-16.871-18.324-37.789-18.324-60.492 0-55.598 40.703-100.84 90.758-100.84 50.051 0 90.758 45.238 90.758 100.84 0 22.715-6.875 43.621-18.324 60.492h8.2305c66.719 0 121 54.277 121 121v118.66c1.3203 0.74219 2.6641 1.4297 3.9727 2.2188l10.066 6.1445c31.105 18.973 71.293 18.926 102.38 0l4.1172-2.5195c47.34-28.824 109.05-26.41 153.54 6.168 8.9766 6.5547 10.945 19.152 4.3711 28.152zm-318.78-13.75c-13.094-3.8047-26.867-4.8945-40.332-3.2031v100.11c0 6.6602 2.4961 12.156 6.875 15.949 2.3398 2.0273 7.3086 5.3047 14.113 4.332 10.535-1.5703 19.355-12.289 19.355-22.234v-94.949zm-80.664 258.23h-60.504v241.99h60.504zm-221.83-121c11.449 0 20.172-8.7227 20.172-19.441v-120.98c-13.477-1.6914-27.254-0.61328-40.332 3.2031v117.06c0 11.129 9.0469 20.164 20.16 20.164zm221.83-126.05-8.4844 5.1719c-21.91 13.367-47.062 20.074-72.18 20.074-25.129 0-50.258-6.6953-72.18-20.074l-8.4844-5.1719v65.555h161.33zm-161.33 206.71h60.492v-20.16c0-11.148 9.0352-20.172 20.172-20.172s20.16 9.0234 20.16 20.172v20.16h60.504v-100.81l-161.33 0.70703zm0 282.32h60.492v-241.99h-60.492zm241.99-541.7v-103.61c0-44.484-36.191-80.664-80.664-80.664h-161.33c-44.484 0-80.664 36.18-80.664 80.664v103.61c13.262-2.6758 26.879-3.3477 40.332-2.1602v-81.277c0-11.148 9.0234-20.172 20.16-20.172 11.137 0 20.172 9.0234 20.172 20.172v90.996c6.6719 2.7227 13.176 5.9141 19.414 9.707l10.066 6.1445c31.094 18.973 71.281 18.926 102.38 0l10.066-6.1445c6.2266-3.793 12.73-6.9961 19.391-9.707v-90.996c0-11.148 9.0234-20.172 20.16-20.172 11.137 0 20.172 9.0234 20.172 20.172v81.277c13.473-1.1992 27.078-0.51562 40.34 2.1602zm-161.33-224.61c27.805 0 50.41-27.145 50.41-60.492 0-33.359-22.621-60.504-50.41-60.504-27.793 0-50.41 27.145-50.41 60.504 0 33.348 22.605 60.492 50.41 60.492zm-342.83 100.82c-11.137 0-20.16 9.0117-20.16 20.16v20.172c0 11.148 9.0234 20.16 20.16 20.16s20.172-9.0117 20.172-20.16v-20.172c0-11.137-9.0352-20.16-20.172-20.16zm0-40.332c11.137 0 20.172-9.0234 20.172-20.172v-20.16c0-11.148-9.0234-20.172-20.172-20.172-11.137 0-20.16 9.0234-20.16 20.172v20.16c0 11.16 9.0234 20.172 20.16 20.172zm-60.504 40.332h20.172c11.137 0 20.172-9.0234 20.172-20.172 0-11.148-9.0234-20.16-20.172-20.16h-20.172c-11.137 0-20.172 9.0117-20.172 20.16 0.011718 11.16 9.0469 20.172 20.172 20.172zm100.84 0h20.172c11.137 0 20.16-9.0234 20.16-20.172 0-11.148-9.0234-20.16-20.16-20.16h-20.172c-11.137 0-20.16 9.0117-20.16 20.16 0 11.16 9.0234 20.172 20.16 20.172zm80.664-161.33c-11.137 0-20.16 9.0117-20.16 20.16v20.172c0 11.148 9.0234 20.16 20.16 20.16s20.172-9.0117 20.172-20.16v-20.172c0-11.137-9.0352-20.16-20.172-20.16zm0-40.332c11.137 0 20.172-9.0234 20.172-20.172v-20.16c0-11.148-9.0234-20.172-20.172-20.172-11.137 0-20.16 9.0234-20.16 20.172v20.16c0 11.148 9.0234 20.172 20.16 20.172zm-60.492 40.332h20.16c11.137 0 20.172-9.0234 20.172-20.172 0-11.148-9.0234-20.16-20.172-20.16h-20.16c-11.137 0-20.172 9.0117-20.172 20.16 0 11.148 9.0234 20.172 20.172 20.172zm100.82 0h20.172c11.137 0 20.16-9.0234 20.16-20.172 0-11.148-9.0234-20.16-20.16-20.16h-20.172c-11.137 0-20.16 9.0117-20.16 20.16 0 11.148 9.0234 20.172 20.16 20.172zm484 20.172c-11.137 0-20.172 9.0234-20.172 20.172v20.16c0 11.148 9.0234 20.172 20.172 20.172 11.137 0 20.16-9.0234 20.16-20.172v-20.16c0-11.16-9.0234-20.172-20.16-20.172zm0-40.344c11.137 0 20.16-9.0117 20.16-20.16v-20.172c0-11.148-9.0234-20.16-20.16-20.16-11.137 0-20.172 9.0117-20.172 20.16v20.172c0 11.148 9.0352 20.16 20.172 20.16zm-60.504 40.344h20.172c11.137 0 20.16-9.0117 20.16-20.16 0-11.148-9.0234-20.172-20.16-20.172h-20.172c-11.137 0-20.172 9.0234-20.172 20.172 0.011719 11.137 9.0469 20.16 20.172 20.16zm100.84 0h20.16c11.137 0 20.172-9.0117 20.172-20.16 0-11.148-9.0352-20.172-20.172-20.172h-20.16c-11.137 0-20.172 9.0234-20.172 20.172 0 11.137 9.0352 20.16 20.172 20.16zm60.504 221.83c11.137 0 20.172-9.0234 20.172-20.172v-20.16c0-11.148-9.0352-20.172-20.172-20.172s-20.16 9.0234-20.16 20.172v20.16c-0.011719 11.148 9.0234 20.172 20.16 20.172zm-20.172-121.01c0 11.148 9.0234 20.16 20.16 20.16 11.137 0 20.172-9.0117 20.172-20.16v-20.172c0-11.148-9.0352-20.16-20.172-20.16-11.137 0-20.16 9.0117-20.16 20.16zm-40.332 60.504h20.16c11.137 0 20.172-9.0117 20.172-20.16 0-11.148-9.0352-20.172-20.172-20.172h-20.16c-11.137 0-20.172 9.0234-20.172 20.172 0 11.137 9.0352 20.16 20.172 20.16zm100.84 0h20.172c11.137 0 20.16-9.0117 20.16-20.16 0-11.148-9.0234-20.172-20.16-20.172h-20.172c-11.137 0-20.16 9.0234-20.16 20.172-0.011718 11.137 9.0234 20.16 20.16 20.16z"/>
</svg>
