<svg width="601" height="157" viewBox="0 0 601 157" fill="none" xmlns="http://www.w3.org/2000/svg">
<path d="M329.7 34C331.2 29.8 332.3 25.7 334.3 22.2C335.4 20.1 337.9 18.2 340.2 17.4C344.7 15.8 348.9 19.6 348.3 24.2C348 26.5 346.7 28.1 344.3 28.6C342.1 29 340.3 28.2 339.2 26.2C339 25.8 338.8 25.3 338.5 24.8C337.2 22.6 336.1 22.5 334.9 24.9C332.7 29.6 332.1 34.5 333.9 39.3C336.7 46.8 337.7 54.4 335.8 62.2C332.6 74.8 323.6 82.3 310.8 83.1C305.3 83.4 299.9 82.9 294.8 80.7C289.5 78.5 279 83 276.6 88.2C274.6 92.7 276.4 96.9 281.3 98C282.9 98.4 284.7 98.4 286.4 98.5C298.1 98.7 309.7 98.4 321.3 99.1C335.2 99.8 344.1 107.9 345.9 120.4C348.1 135.6 342.2 147.1 329 152.2C314.7 157.7 299.9 157.4 285.5 152.6C273.9 148.8 268.4 138.5 271 127.2C272.3 121.6 275.6 117.6 280.6 115C281.4 114.6 282.2 114.2 283.5 113.5C273.4 110.3 270.5 103 271.6 93.7C272.9 83.4 280.7 80.2 290.2 78.3C280.5 70.3 277 60.3 278.8 48.4C279.8 42 282.3 36.3 287.1 31.9C293.3 26.3 300.9 24.6 309.1 24.8C317.4 25.1 324.4 27.8 329.7 34ZM308.3 114.1C302.6 114.1 297 114 291.3 114.1C277.8 114.4 269.8 125.8 274.2 138.5C276.3 144.7 281 148.2 286.9 150.2C300.2 154.5 313.6 154.7 326.9 150C331.8 148.2 336.1 145.3 339.2 141C347.2 129.8 341.9 116.6 328.3 114.4C326.7 114.2 325.1 114.1 323.4 114.1C318.4 114.1 313.4 114.1 308.3 114.1ZM323.3 54C323.1 54 322.9 54 322.7 54C322.7 50 322.9 46.1 322.6 42.2C322.3 37.3 321.5 32.5 316.8 29.4C307.2 23 294.5 28.4 293.5 39.8C292.8 47.8 293 55.9 293 64C293 66 293.5 68.1 294 70C295.9 77.6 301.1 81.7 308.3 81.5C315.8 81.3 320.6 77.3 322 69.4C322.9 64.3 322.8 59.1 323.3 54ZM136.5 107.6C135 109.2 133.9 111.1 132.3 112.3C124.1 118.1 110.6 113.4 108.1 103.8C107.1 100.1 107 96 106.9 92.1C106.7 78.8 107 65.6 106.7 52.3C106.6 48.3 106 44.2 104.8 40.4C102.8 33.6 98.5 28.8 91 28.1C83.2 27.4 77.2 30.5 73 37C70.1 41.7 68.8 46.9 68.8 52.3C68.7 70.9 68.8 89.3 68.8 107.9C68.8 108.5 69 109.3 69 110.3C70.8 110.3 72.5 110.2 74.2 110.4C74.8 110.5 75.3 111 75.7 111.4C75.1 111.8 74.6 112.6 74.1 112.6C65.7 112.7 57.3 112.7 48.9 112.6C48.4 112.6 47.9 112 47.4 111.5C47.9 111.1 48.3 110.4 48.8 110.4C50.5 110.2 52.2 110.3 54.3 110.3C54.3 109 54.3 107.9 54.3 106.8C54.3 82.3 54.2 57.8 54.4 33.3C54.4 30.5 53.7 29.4 50.8 29.8C50.2 29.9 49.6 30 49 29.8C48.4 29.6 47.9 29.2 47.4 28.8C48 28.4 48.5 27.6 49 27.5C55.4 27.4 61.7 27.4 68.5 27.4C68.5 30.8 68.5 34 68.5 37.4C68.7 37.5 68.9 37.6 69.1 37.6C70.3 36 71.4 34.3 72.7 32.7C81.9 21.6 100.2 23.9 108.5 30.2C117.7 37.1 120.8 46.7 121 57.6C121.2 72.3 121.1 86.9 121.1 101.7C121.1 103.3 121.2 104.9 121.4 106.6C121.8 108.9 122.9 110.9 125.4 111.5C128.2 112.1 130.4 111.3 132.1 109.1C133.3 107.7 133.9 106.1 136.5 107.6ZM368 29.8C366.1 29.8 364.5 29.9 362.9 29.7C362.4 29.6 362 29 361.5 28.6C362 28.2 362.5 27.5 363 27.5C369.5 27.4 375.9 27.4 382.7 27.4C382.7 30.8 382.7 34 382.7 37.8C383.4 37.2 383.8 37.2 383.9 36.8C390 26.3 399.5 23.6 410.7 25.4C422.4 27.2 429.8 34.3 433.1 45.4C434.4 49.6 435 54.2 435 58.5C435.2 73 435.1 87.4 435.1 101.9C435.1 103.2 435.1 104.6 435.3 105.9C435.7 108.4 436.6 110.7 439.4 111.3C442.2 111.9 444.5 110.8 446.4 108.6C447 107.8 448.1 107.2 449.2 106.9C448.6 110.7 446 112.8 442.7 113.7C438 115 433.2 114.8 428.8 112.7C425 110.9 422.4 107.9 421.7 103.8C421 99.7 420.5 95.4 420.5 91.2C420.3 78.2 420.7 65.1 420.3 52C420.2 47.6 419.4 43.1 417.9 39C413.7 27 399 23.9 389.9 32.8C384.4 38.1 382.4 45 382.4 52.4C382.3 67.7 382.4 83 382.4 98.3C382.4 102.1 382.4 106 382.4 110.2C384.1 110.2 385.6 110.1 387.1 110.3C387.8 110.4 388.6 110.9 389.3 111.3C388.7 111.7 388 112.5 387.4 112.5C379.3 112.6 371.2 112.6 363.1 112.5C362.5 112.5 361.9 111.8 361.3 111.4C361.9 111 362.4 110.3 363 110.3C364.5 110.1 366 110.2 367.7 110.2C368 83.4 368 56.8 368 29.8ZM596.3 107.2C594.4 111.8 590.6 113.8 585.7 114.2C581.5 114.4 577 114.3 573.9 111.4C571.1 108.8 569.2 105.2 567 102.2C565.7 103.7 564.2 106 562.1 107.9C554.8 114.7 546.1 115.4 536.8 113.7C524 111.3 515.4 103.7 511.4 91.5C506.6 77.2 506.5 62.5 511.3 48.2C518 28.1 540.8 19.4 561.1 28.5C573.8 34.3 580.5 44.5 581.4 58.2C582.1 70.5 581.9 82.8 582 95.2C582.1 98.4 581.9 101.7 582.1 104.9C582.3 107.7 583.2 110.4 586.3 111.2C589.3 112 591.5 110.6 593.3 108.1C593.9 107.4 595 107 595.8 106.5C595.9 106.6 596.1 106.9 596.3 107.2ZM567.3 72.6C567.5 72.6 567.8 72.6 567.9 72.5C567.2 62.7 566.9 52.9 565.5 43.2C564 33.7 558.1 28.8 549 27.6C535.4 25.7 526.8 32.3 525 45.8C524.8 47.8 524.6 49.9 524.5 51.9C524.4 61.2 524.3 70.5 524.6 79.9C524.8 85.4 525.4 91 526.5 96.4C527.5 101.5 529.7 106.1 534.5 108.7C541.7 112.6 549.2 112.3 556.3 108.5C563.2 104.8 567.1 98.9 567.2 90.8C567.3 84.8 567.3 78.7 567.3 72.6ZM0.700012 0.399994C10.3 0.399994 19.5 0.399994 28.7 0.399994C29.1 2.79999 29.1 2.8 27 2.8C25.6 2.9 24.2 2.8 22.7 2.8C22.7 38.7 22.7 74.2 22.7 110.2C24.3 110.2 25.8 110.1 27.2 110.3C27.9 110.4 28.5 111 29.2 111.4C28.6 111.8 27.9 112.5 27.3 112.5C20.3 112.6 13.4 112.6 6.30002 112.6C5.20002 112.6 4.00002 112.8 3.00002 112.5C2.20002 112.3 1.50001 111.7 0.700012 111.3C1.40001 111 2.10002 110.3 2.80002 110.2C4.20002 110 5.60002 110.1 7.30002 110.1C7.30002 74.3 7.30002 38.7 7.30002 3.10001C5.20002 2.90001 3.00002 2.6 0.900017 2.2C0.700017 2.2 0.700012 1.19999 0.700012 0.399994ZM151 103.8C150.8 106.6 150.8 108.6 150.5 110.7C150.4 111.3 149.7 111.9 149.2 112.6C148.8 112 148.1 111.5 148.1 110.9C148 106.3 148 101.6 148.1 97C148.1 96.5 148.5 95.6 148.8 95.6C149.4 95.5 150.3 95.8 150.6 96.2C151.5 97.3 152.1 98.6 153 99.8C160.3 110.7 175.4 115 187.2 109.8C193.7 106.9 197.3 101.8 197.6 94.6C197.8 87.7 194 83.1 188.2 80.3C184.6 78.6 180.6 77.5 176.8 76.2C172.2 74.7 167.5 73.4 163 71.7C155 68.5 149.9 62.8 149 53.9C148 44.2 151.4 36.4 159.3 30.7C169.3 23.5 184 23.5 194.8 30.5C195.7 31.1 196.7 31.6 198 32.6C198.2 31.2 198.3 30.2 198.6 29.4C198.8 28.8 199.4 28.3 199.8 27.8C200.1 28.4 200.8 29 200.9 29.7C201 34.3 201 39 201 43.6C200.7 43.8 200.3 44 199.9 44.2C199.3 43.6 198.1 43 198 42.3C194.8 26.9 172.3 24.7 162.8 32.4C154.1 39.5 155.5 51.8 165.9 55.8C171.2 57.9 177 58.9 182.4 60.8C187.7 62.7 192.9 64.9 197.9 67.5C201.7 69.5 204 73.3 205.4 77.5C210.9 94.4 200.2 111.6 182.6 114C171.7 115.5 161.9 113.5 153.6 105.8C153.1 105.1 152.4 104.7 151 103.8ZM466.8 29.8C464.6 29.8 462.9 29.9 461.2 29.7C460.7 29.7 460.3 29 459.8 28.6C460.2 28.2 460.5 27.5 460.9 27.5C467.5 27.4 474.2 27.4 481.2 27.4C481.2 29 481.2 30.2 481.2 31.4C481.2 53.8 481.2 76.4 481.2 98.8C481.2 101.2 481.4 103.5 481.7 105.8C482.1 108.2 483.1 110.6 486 111.1C488.8 111.7 490.9 110.4 492.6 108.3C493.2 107.5 494.4 107 495.5 106.7C494.4 110.7 491.8 113 488 113.8C477.2 115.7 467.3 111.9 467.1 98.1C466.7 76.7 466.9 55.4 466.9 34C466.8 32.7 466.8 31.5 466.8 29.8ZM231.7 29.8C229.8 29.8 228.5 29.9 227.1 29.7C226.4 29.6 225.7 29.1 225 28.6C225.6 28.2 226.3 27.4 226.9 27.4C233.1 27.3 239.5 27.3 246.1 27.3C246.2 28.6 246.3 29.7 246.3 30.9C246.3 53.8 246.3 76.7 246.3 99.5C246.3 101.7 246.5 104 246.9 106.1C247.3 108.4 248.4 110.4 251 110.9C253.7 111.5 255.7 110.4 257.4 108.4C258.1 107.5 259.2 106.9 260.4 106.5C259.7 110.3 257.2 112.3 253.8 113.4C242.5 117 232.8 110.6 232.1 98.7C231.6 89.9 231.7 81.1 231.6 72.3C231.5 59.3 231.6 46.4 231.6 33.4C231.7 32.5 231.7 31.4 231.7 29.8ZM599.8 11.5C599.6 10.2 599.6 8.8 599.4 7.5C599.1 7.6 598.8 7.6 598.8 7.7C598.1 9 597.3 10.3 596.6 11.5C596 10.2 595.5 8.8 594.9 7.5C594.7 7.2 594.6 6.79999 593.9 6.39999C593.9 7.99999 593.9 9.7 593.9 11.3C593.6 11.4 593.3 11.5 593 11.5C592.8 10.9 592.3 10.3 592.3 9.7C592.2 7.8 592.1 5.89999 592.3 3.89999C592.4 3.19999 593.2 2.4 593.6 1.7C594.2 2.3 595.1 2.90001 595.4 3.60001C596 4.70001 596.1 6.09999 596.5 7.39999C598.9 6.19999 596.7 1.50001 600.9 1.60001C600.9 5.00001 600.9 8.2 600.9 11.2C600.4 11.5 600.1 11.5 599.8 11.5ZM585.1 11.5C583.3 8.8 587 4.3 582.2 2.3C584.5 2.3 586.7 2.3 589 2.3C589.1 2.5 589.2 2.6 589.3 2.8C588.4 3.3 587.5 3.8 586.6 4.3C586.5 6.7 586.4 9.2 586.3 11.7C585.8 11.5 585.5 11.5 585.1 11.5Z" fill="black"/>
</svg>
