<?xml version="1.0" encoding="UTF-8"?>
<svg width="1200pt" height="1200pt" version="1.1" viewBox="0 0 1200 1200" xmlns="http://www.w3.org/2000/svg">
 <path d="m660.74 637.57c132.1-28.039 231.52-145.54 231.52-285.87 0-161.15-131.11-292.26-292.26-292.26s-292.26 131.11-292.26 292.26c0 140.33 99.426 257.83 231.52 285.87-250.89 30.121-446.03 244.13-446.03 503h36.977c0-259.04 210.75-469.79 469.79-469.79 259.04 0 469.79 210.75 469.79 469.79h36.977c0-258.87-195.14-472.88-446.02-503zm-316.02-285.87c0-140.76 114.52-255.29 255.29-255.29 140.76 0 255.29 114.52 255.29 255.29-0.003906 140.76-114.52 255.28-255.29 255.28-140.76 0-255.29-114.52-255.29-255.28z"/>
</svg>
